<svg t="1615452316825" class="icon" viewBox="0 0 1024 1024" version="1.1" xmlns="http://www.w3.org/2000/svg" p-id="2170" width="128" height="128"><path d="M731.136 870.4H291.84A147.968 147.968 0 0 1 153.6 716.8a150.528 150.528 0 0 1 123.392-153.6 91.648 91.648 0 0 1 88.064-77.824 78.848 78.848 0 0 1 19.456 0 187.904 187.904 0 0 1 176.128-133.12A181.76 181.76 0 0 1 696.32 414.72a209.408 209.408 0 0 1 51.2 147.968A150.528 150.528 0 0 1 870.4 716.8a147.968 147.968 0 0 1-138.24 153.6zM291.84 599.04A113.664 113.664 0 0 0 185.856 716.8a113.664 113.664 0 0 0 105.984 117.76h439.296a113.664 113.664 0 0 0 105.984-117.76 113.664 113.664 0 0 0-105.984-117.76h-20.48l2.56-19.968a192 192 0 0 0 0-24.064 160.768 160.768 0 0 0-153.6-165.888A156.672 156.672 0 0 0 409.6 512l-4.608 19.968-17.408-8.192a53.76 53.76 0 0 0-23.04-5.632A59.392 59.392 0 0 0 307.2 581.632v17.408h-15.36z m0 0" fill="#192951" p-id="2171"></path><path d="M276.992 567.808a15.872 15.872 0 0 1-13.824-8.192 220.672 220.672 0 0 1-28.16-108.032 204.8 204.8 0 0 1 196.096-209.92 196.096 196.096 0 0 1 177.152 119.808 18.432 18.432 0 0 1 0 13.312 16.896 16.896 0 0 1-8.192 9.728 15.872 15.872 0 0 1-21.504-8.192 163.84 163.84 0 0 0-147.456-102.4 169.472 169.472 0 0 0-163.84 177.152 183.808 183.808 0 0 0 23.552 90.112 18.432 18.432 0 0 1 0 17.408 16.384 16.384 0 0 1-14.336 8.704zM433.152 204.8a16.896 16.896 0 0 1-16.384-17.408v-15.872a16.384 16.384 0 1 1 32.768 0v17.408a17.92 17.92 0 0 1-4.608 12.288 15.872 15.872 0 0 1-11.776 5.12zM188.928 467.968h-16.384A15.872 15.872 0 0 1 157.696 460.8a18.432 18.432 0 0 1 0-17.92 15.872 15.872 0 0 1 14.848-8.192h16.384a17.408 17.408 0 0 1 0 34.816zM250.88 276.48a15.36 15.36 0 0 1-11.264-5.12L223.232 256a18.432 18.432 0 0 1 0-23.552 15.36 15.36 0 0 1 22.016 0l16.384 17.408a18.432 18.432 0 0 1 3.584 18.944 16.384 16.384 0 0 1-14.848 10.752z m358.4 0a15.36 15.36 0 0 1-11.264-5.12 18.432 18.432 0 0 1 0-24.576l16.384-17.92a15.36 15.36 0 0 1 23.04 0 18.432 18.432 0 0 1 0 24.576l-16.384 17.408a15.36 15.36 0 0 1-11.264 5.12z m0 0" fill="#192951" p-id="2172"></path></svg>